{"title":"Dancing With the Stars US-S18E11 -GHOST-","uid":10196810,"size":567777689,"categoryP":"video","categoryS":"tv_shows","magnet":"?xt=urn:btih:871b44a0e94623083af480d2d4f5174de0d9ebb2&amp;dn=Dancing+With+the+Stars+US-S18E11+-GHOST-&amp;tr=udp%3A%2F%2Ftracker.openbittorrent.com%3A80&amp;tr=udp%3A%2F%2Fopen.demonii.com%3A1337&amp;tr=udp%3A%2F%2Ftracker.coppersurfer.tk%3A6969&amp;tr=udp%3A%2F%2Fexodus.desync.com%3A6969","seeders":0,"leechers":0,"uploader":"---GHOST---","files":2,"time":1400703716,"description":"General\n\nComplete name                       : Dancing With the Stars US-S18E11 -GHOST-.mp4\nFormat                              : MPEG-4\nFormat profile                      : Base Media / Version 2\nCodec ID                            : mp42\nFile size                           : 541 MiB\nDuration                            : 1h 26mn\nOverall bit rate mode               : Variable\nOverall bit rate                    : 879 Kbps\nEncoded date                        : UTC 2014-05-21 04:56:20\nTagged date                         : UTC 2014-05-21 04:56:20\n\nVideo\n\nID                                  : 201\nFormat                              : AVC\nFormat/Info                         : Advanced Video Codec\nFormat profile                      : &lt;a class=&quot;__cf_email__&quot; href=&quot;/cdn-cgi/l/email-protection&quot; data-cfemail=&quot;5911303e3119156a7769&quot;&gt;[email&amp;#160;protected]&lt;/a&gt;&lt;script data-cfhash='f9e31' type=&quot;text/javascript&quot;&gt;\n/* &lt;![CDATA[ */!function(){try{var t=&quot;currentScript&quot;in document?document.currentScript:function(){for(var t=document.getElementsByTagName(&quot;script&quot;),e=t.length;e--;)if(t[e].getAttribute(&quot;data-cfhash&quot;))return t[e]}();if(t&amp;&amp;t.previousSibling){var e,r,n,i,c=t.previousSibling,a=c.getAttribute(&quot;data-cfemail&quot;);if(a){for(e=&quot;&quot;,r=parseInt(a.substr(0,2),16),n=2;a.length-n;n+=2)i=parseInt(a.substr(n,2),16)^r,e+=String.fromCharCode(i);e=document.createTextNode(e),c.parentNode.replaceChild(e,c)}t.parentNode.removeChild(t);}}catch(u){}}()/* ]]&gt; */&lt;/script&gt;\nFormat settings, CABAC              : Yes\nFormat settings, ReFrames           : 4 frames\nCodec ID                            : avc1\nCodec ID/Info                       : Advanced Video Coding\nDuration                            : 1h 26mn\nBit rate                            : 810 Kbps\nMaximum bit rate                    : 4 201 Kbps\nWidth                               : 640 pixels\nHeight                              : 356 pixels\nDisplay aspect ratio                : 16:9\nFrame rate mode                     : Constant\nFrame rate                          : 29.970 fps\nColor space                         : YUV\nChroma subsampling                  : 4:2:0\nBit depth                           : 8 bits\nScan type                           : Progressive\nBits/(Pixel*Frame)                  : 0.119\nStream size                         : 499 MiB (92%)\nWriting library                     : x264 core 132\nEncoding settings                   : cabac=1 / ref=1 / deblock=1:0:0 / analyse=0x3:0x113\n / me=hex / subme=2 / psy=1 / psy_rd=1.00:0.00 / mixed_ref=0 / me_range=16 / chroma_me=1\n / trellis=0 / 8x8dct=1 / cqm=0 / deadzone=21,11 / fast_pskip=1 / chroma_qp_offset=0 / \nthreads=12 / lookahead_threads=2 / sliced_threads=0 / nr=0 / decimate=1 / interlaced=0 / \nbluray_compat=0 / constrained_intra=0 / bframes=3 / b_pyramid=2 / b_adapt=1 / b_bias=0 \n/ direct=1 / weightb=1 / open_gop=0 / weightp=1 / keyint=60 / keyint_min=6 / scenecut=40\n / intra_refresh=0 / rc_lookahead=10 / rc=crf / mbtree=1 / crf=25.0 / qcomp=0.60 / qpmin=0\n / qpmax=69 / qpstep=4 / ip_ratio=1.40 / aq=1:1.00\nTagged date                         : UTC 2014-05-21 04:56:26\n\nAudio\n\nID                                  : 101\nFormat                              : AAC\nFormat/Info                         : Advanced Audio Codec\nFormat profile                      : LC\nCodec ID                            : 40\nDuration                            : 1h 26mn\nBit rate mode                       : Variable\nBit rate                            : 64.2 Kbps\nMaximum bit rate                    : 78.7 Kbps\nChannel(s)                          : 2 channels\nChannel positions                   : Front: L R\nSampling rate                       : 48.0 KHz\nCompression mode                    : Lossy\nStream size                         : 39.5 MiB (7%)\nEncoded date                        : UTC 2014-05-21 04:56:25\nTagged date                         : UTC 2014-05-21 04:56:26\n","torrent":{"xt":"urn:btih:871b44a0e94623083af480d2d4f5174de0d9ebb2","amp;dn":"Dancing+With+the+Stars+US-S18E11+-GHOST-","amp;tr":["udp%3A%2F%2Ftracker.openbittorrent.com%3A80","udp%3A%2F%2Fopen.demonii.com%3A1337","udp%3A%2F%2Ftracker.coppersurfer.tk%3A6969","udp%3A%2F%2Fexodus.desync.com%3A6969"],"infoHash":"871b44a0e94623083af480d2d4f5174de0d9ebb2","infoHashBuffer":{"type":"Buffer","data":[135,27,68,160,233,70,35,8,58,244,128,210,212,245,23,77,224,217,235,178]},"announce":[],"urlList":[]}}